<?xml version="1.0" encoding="utf-8"?>
<!-- Generator: Adobe Illustrator 16.0.0, SVG Export Plug-In . SVG Version: 6.00 Build 0)  -->
<!DOCTYPE svg PUBLIC "-//W3C//DTD SVG 1.1//EN" "http://www.w3.org/Graphics/SVG/1.1/DTD/svg11.dtd">
<svg version="1.1" id="Ebene_1" xmlns="http://www.w3.org/2000/svg" xmlns:xlink="http://www.w3.org/1999/xlink" x="0px" y="0px"
	 width="208.562px" height="208.562px" viewBox="0 0 208.562 208.562" enable-background="new 0 0 208.562 208.562"
	 xml:space="preserve">
<g>
	<g>
		<path fill="#FFFFFF" d="M38.931,155.664c24.619-33.589,49.237-67.177,73.856-100.766c-5.757,0-11.513,0-17.27,0
			c24.704,32.882,49.409,65.763,74.113,98.645c3.268,4.349,8.569,6.583,13.682,3.588c4.296-2.517,6.87-9.313,3.588-13.682
			c-24.704-32.882-49.409-65.764-74.113-98.646c-4.74-6.309-12.55-6.438-17.27,0C70.899,78.392,46.28,111.981,21.662,145.57
			c-3.229,4.406-0.75,11.141,3.587,13.682C30.32,162.223,35.716,160.052,38.931,155.664L38.931,155.664z"/>
	</g>
</g>
</svg>
